<?xml version="1.0" encoding="us-ascii" standalone="no"?><svg xmlns="http://www.w3.org/2000/svg" xmlns:xlink="http://www.w3.org/1999/xlink" contentStyleType="text/css" height="418px" preserveAspectRatio="none" style="width:815px;height:418px;background:#FFFFFF;" version="1.1" viewBox="0 0 815 418" width="815px" zoomAndPan="magnify"><defs/><g><!--entity User--><g id="elem_User"><rect fill="#FFFFFF" height="32.2969" rx="2.5" ry="2.5" style="stroke:#000000;stroke-width:2.0;" width="54" x="305" y="11"/><rect fill="#FFFFFF" height="32.2969" rx="2.5" ry="2.5" style="stroke:#000000;stroke-width:2.0;" width="54" x="301" y="7"/><text fill="#000000" font-family="sans-serif" font-size="14" lengthAdjust="spacing" textLength="38" x="309" y="27.9951">USER</text></g><!--entity DataFiles--><g id="elem_DataFiles"><rect fill="#FFFFFF" height="32.2969" rx="2.5" ry="2.5" style="stroke:#000000;stroke-width:2.0;" width="94" x="11" y="242.1"/><rect fill="#FFFFFF" height="32.2969" rx="2.5" ry="2.5" style="stroke:#000000;stroke-width:2.0;" width="94" x="7" y="238.1"/><text fill="#000000" font-family="sans-serif" font-size="14" lengthAdjust="spacing" textLength="78" x="15" y="259.0951">DATA FILES</text></g><!--entity ReadDataFiles--><g id="elem_ReadDataFiles"><rect fill="#F1F1F1" height="36.2969" rx="2.5" ry="2.5" style="stroke:#000000;stroke-width:2.0;" width="127" x="266.5" y="120.3"/><text fill="#000000" font-family="sans-serif" font-size="14" lengthAdjust="spacing" textLength="107" x="276.5" y="143.2951">Read Data Files</text></g><!--entity FilterDataFiles--><g id="elem_FilterDataFiles"><rect fill="#F1F1F1" height="36.2969" rx="2.5" ry="2.5" style="stroke:#000000;stroke-width:2.0;" width="124" x="500" y="120.3"/><text fill="#000000" font-family="sans-serif" font-size="14" lengthAdjust="spacing" textLength="104" x="510" y="143.2951">Filter Data Files</text></g><!--entity GenerateMatrix--><g id="elem_GenerateMatrix"><rect fill="#F1F1F1" height="36.2969" rx="2.5" ry="2.5" style="stroke:#000000;stroke-width:2.0;" width="250" x="437" y="238.1"/><text fill="#000000" font-family="sans-serif" font-size="14" lengthAdjust="spacing" textLength="230" x="447" y="261.0951">Generate Correspondence Matrix</text></g><!--entity DataFrames--><g id="elem_DataFrames"><path d="M217.5,243.6 C217.5,233.6 271,233.6 271,233.6 C271,233.6 324.5,233.6 324.5,243.6 L324.5,268.8969 C324.5,278.8969 271,278.8969 271,278.8969 C271,278.8969 217.5,278.8969 217.5,268.8969 L217.5,243.6 " fill="#F1F1F1" style="stroke:#181818;stroke-width:0.5;"/><path d="M217.5,243.6 C217.5,253.6 271,253.6 271,253.6 C271,253.6 324.5,253.6 324.5,243.6 " fill="none" style="stroke:#181818;stroke-width:0.5;"/><text fill="#000000" font-family="sans-serif" font-size="14" lengthAdjust="spacing" textLength="87" x="227.5" y="270.5951">Data Frames</text></g><!--entity DistanceMatrix--><g id="elem_DistanceMatrix"><path d="M374.5,365.89 C374.5,355.89 437,355.89 437,355.89 C437,355.89 499.5,355.89 499.5,365.89 L499.5,391.1869 C499.5,401.1869 437,401.1869 437,401.1869 C437,401.1869 374.5,401.1869 374.5,391.1869 L374.5,365.89 " fill="#F1F1F1" style="stroke:#181818;stroke-width:0.5;"/><path d="M374.5,365.89 C374.5,375.89 437,375.89 437,375.89 C437,375.89 499.5,375.89 499.5,365.89 " fill="none" style="stroke:#181818;stroke-width:0.5;"/><text fill="#000000" font-family="sans-serif" font-size="14" lengthAdjust="spacing" textLength="105" x="384.5" y="392.8851">Distance Matrix</text></g><!--entity CorrespondenceMatrix--><g id="elem_CorrespondenceMatrix"><path d="M576.5,365.89 C576.5,355.89 667,355.89 667,355.89 C667,355.89 757.5,355.89 757.5,365.89 L757.5,391.1869 C757.5,401.1869 667,401.1869 667,401.1869 C667,401.1869 576.5,401.1869 576.5,391.1869 L576.5,365.89 " fill="#F1F1F1" style="stroke:#181818;stroke-width:0.5;"/><path d="M576.5,365.89 C576.5,375.89 667,375.89 667,375.89 C667,375.89 757.5,375.89 757.5,365.89 " fill="none" style="stroke:#181818;stroke-width:0.5;"/><text fill="#000000" font-family="sans-serif" font-size="14" lengthAdjust="spacing" textLength="161" x="586.5" y="392.8851">Correspondence Matrix</text></g><!--link User to ReadDataFiles--><g id="link_User_ReadDataFiles"><path d="M330,43.54 C330,64.33 330,92.92 330,113.81 " fill="none" id="User-to-ReadDataFiles" style="stroke:#181818;stroke-width:1.0;"/><polygon fill="#181818" points="330,119.81,334,110.81,330,114.81,326,110.81,330,119.81" style="stroke:#181818;stroke-width:1.0;"/><text fill="#000000" font-family="sans-serif" font-size="13" lengthAdjust="spacing" textLength="106" x="331" y="86.3669">Experiment Path</text></g><!--link ReadDataFiles to FilterDataFiles--><g id="link_ReadDataFiles_FilterDataFiles"><path d="M393.7,138.45 C426.7,138.45 460.84,138.45 493.64,138.45 " fill="none" id="ReadDataFiles-to-FilterDataFiles" style="stroke:#181818;stroke-width:1.0;"/><polygon fill="#181818" points="499.64,138.45,490.64,134.45,494.64,138.45,490.64,142.45,499.64,138.45" style="stroke:#181818;stroke-width:1.0;"/><text fill="#000000" font-family="sans-serif" font-size="13" lengthAdjust="spacing" textLength="70" x="411.75" y="131.5169">List of Files</text></g><!--link FilterDataFiles to GenerateMatrix--><g id="link_FilterDataFiles_GenerateMatrix"><path d="M562,157.03 C562,178.93 562,210.08 562,231.87 " fill="none" id="FilterDataFiles-to-GenerateMatrix" style="stroke:#181818;stroke-width:1.0;"/><polygon fill="#181818" points="562,237.87,566,228.87,562,232.87,558,228.87,562,237.87" style="stroke:#181818;stroke-width:1.0;"/><text fill="#000000" font-family="sans-serif" font-size="13" lengthAdjust="spacing" textLength="122" x="563" y="199.6669">Filtered File Names</text></g><!--link DataFiles to DataFrames--><g id="link_DataFiles_DataFrames"><path d="M105.33,256.24 C138.67,256.24 176.71,256.24 211,256.24 " fill="none" id="DataFiles-to-DataFrames" style="stroke:#181818;stroke-width:1.0;"/><polygon fill="#181818" points="217,256.24,208,252.24,212,256.24,208,260.24,217,256.24" style="stroke:#181818;stroke-width:1.0;"/><text fill="#000000" font-family="sans-serif" font-size="13" lengthAdjust="spacing" textLength="76" x="123.25" y="249.3069">File Content</text></g><!--link DataFrames to GenerateMatrix--><g id="link_DataFrames_GenerateMatrix"><path d="M324.71,256.24 C356.24,256.24 391.5,256.24 430.74,256.24 " fill="none" id="DataFrames-to-GenerateMatrix" style="stroke:#181818;stroke-width:1.0;"/><polygon fill="#181818" points="436.74,256.24,427.74,252.24,431.74,256.24,427.74,260.24,436.74,256.24" style="stroke:#181818;stroke-width:1.0;"/><text fill="#000000" font-family="sans-serif" font-size="13" lengthAdjust="spacing" textLength="76" x="342.75" y="249.3069">Object Data</text></g><!--link GenerateMatrix to DistanceMatrix--><g id="link_GenerateMatrix_DistanceMatrix"><path d="M436.83,274.3 C418.92,282.11 402.65,293.21 391,308.89 C379.71,324.1 387.8755,337.8065 402.7155,351.4665 " fill="none" id="GenerateMatrix-to-DistanceMatrix" style="stroke:#181818;stroke-width:1.0;"/><polygon fill="#181818" points="407.13,355.53,403.2172,346.4917,403.4512,352.1438,397.7992,352.3778,407.13,355.53" style="stroke:#181818;stroke-width:1.0;"/><text fill="#000000" font-family="sans-serif" font-size="13" lengthAdjust="spacing" textLength="126" x="392" y="321.9569">Calculate Distances</text></g><!--link DistanceMatrix to GenerateMatrix--><g id="link_DistanceMatrix_GenerateMatrix"><path d="M483.44,355.49 C497.24,347.47 511.69,337.48 523,325.89 C537.55,310.98 546.1564,295.0731 552.7164,280.1431 " fill="none" id="DistanceMatrix-to-GenerateMatrix" style="stroke:#181818;stroke-width:1.0;"/><polygon fill="#181818" points="555.13,274.65,547.8475,281.2806,553.1187,279.2276,555.1717,284.4988,555.13,274.65" style="stroke:#181818;stroke-width:1.0;"/><text fill="#000000" font-family="sans-serif" font-size="13" lengthAdjust="spacing" textLength="63" x="537" y="321.9569">Distances</text></g><!--link GenerateMatrix to CorrespondenceMatrix--><g id="link_GenerateMatrix_CorrespondenceMatrix"><path d="M589.08,274.76 C601.89,283.9 616.79,295.89 628,308.89 C640.09,322.91 647.637,335.8386 654.567,350.0286 " fill="none" id="GenerateMatrix-to-CorrespondenceMatrix" style="stroke:#181818;stroke-width:1.0;"/><polygon fill="#181818" points="657.2,355.42,656.8448,345.5776,655.0058,350.9272,649.6562,349.0882,657.2,355.42" style="stroke:#181818;stroke-width:1.0;"/><text fill="#000000" font-family="sans-serif" font-size="13" lengthAdjust="spacing" textLength="167" x="640" y="321.9569">Mapped Correspondences</text></g><!--SRC=[bL91Rjim4Bpp5GjUSl8bnnmAEBOJ54ZI874UG94hYpL32YGDkIZwzomfoHOL-r0V17XdPcSqgx3NjXLUV8B2MXnCtE8nBetUsK-q4IGzq3Ds0u_6LS90Y7yCGkqyU9HHs9t1mC9foMa8VndGxzvvXNxb30ag8-H-CjqsMkujXW2tx5-oM6EjBK9eKUfQoucNaD7v0C8gK28AGfmlVAKpXgori-4_dVEKu9rt1wjwVjVeY1bPUk-wVdYVb-IWcoELOgaDQaT7JKcc_Xy1AN40_l6-UUC5jARm3vego_XwkLt2my-dpJjFMr-zavI9jfrRv6yeL9P1rl4aJBFJfYcP1XHiJk-d5mMFQD6BYB1odWfjdLLe9SApY5uVitgazADyfia5qZKg4MXLRqgt65opN_ux9Ub0rgN1E1iCpkJhcKfabgmshWlGwTWCNoygCA924rY-p4AvpYv-b2t27V3DiKMlysV_AcB3MSbOUBrh8WbdVIRf4xq3k7eedSqPesNPPHBsJ4gOYF2IssCNFCzj3gfqCdev6mTwZvtutvr-LR_fxdaHPpDup5UU8gbMmiY3IL_8YALy9UtwsqqqLnmlNJ8fdqNRKYib7FWN]--></g></svg>
